<svg width="51" height="51" viewBox="0 0 51 51" fill="none" xmlns="http://www.w3.org/2000/svg">
<path d="M37.5208 3.65275C35.4193 3.42981 33.3071 3.32132 31.1937 3.32775C24.1875 3.32775 19.8333 7.79025 19.8333 14.9736V19.8507H13.9479C13.6716 19.8507 13.4067 19.9604 13.2113 20.1558C13.016 20.3511 12.9062 20.6161 12.9062 20.8923V28.9132C12.9062 29.1894 13.016 29.4544 13.2113 29.6497C13.4067 29.8451 13.6716 29.9548 13.9479 29.9548H19.8333V46.0382C19.8333 46.3144 19.9431 46.5794 20.1384 46.7747C20.3338 46.9701 20.5987 47.0798 20.875 47.0798H29.1625C29.4388 47.0798 29.7037 46.9701 29.8991 46.7747C30.0944 46.5794 30.2042 46.3144 30.2042 46.0382V29.9548H36.0708C36.3237 29.955 36.568 29.8631 36.7582 29.6963C36.9483 29.5296 37.0713 29.2993 37.1042 29.0486L38.1396 21.0278C38.1589 20.8807 38.1465 20.7313 38.1034 20.5894C38.0603 20.4476 37.9874 20.3165 37.8896 20.2051C37.7918 20.0937 37.6713 20.0044 37.5362 19.9433C37.4011 19.8822 37.2545 19.8506 37.1062 19.8507H30.2042V15.7694C30.2042 13.7486 30.6104 12.9048 33.1375 12.9048H37.3854C37.6617 12.9048 37.9266 12.7951 38.122 12.5997C38.3173 12.4044 38.4271 12.1394 38.4271 11.8632V4.68609C38.4272 4.43319 38.3353 4.18888 38.1686 3.99875C38.0018 3.80861 37.7716 3.68563 37.5208 3.65275ZM36.3437 10.8194L33.1354 10.8215C28.6417 10.8215 28.1208 13.6465 28.1208 15.7694V20.8944C28.1208 21.1703 28.2303 21.435 28.4252 21.6303C28.6201 21.8255 28.8845 21.9355 29.1604 21.9361H35.9229L35.1542 27.8736H29.1625C28.8862 27.8736 28.6213 27.9833 28.4259 28.1787C28.2306 28.374 28.1208 28.639 28.1208 28.9153V44.9944H21.9167V28.9153C21.9167 28.639 21.8069 28.374 21.6116 28.1787C21.4162 27.9833 21.1513 27.8736 20.875 27.8736H14.9917V21.9361H20.875C21.1513 21.9361 21.4162 21.8263 21.6116 21.631C21.8069 21.4356 21.9167 21.1707 21.9167 20.8944V14.9736C21.9167 8.98609 25.3854 5.41109 31.1937 5.41109C33.2958 5.41109 35.1937 5.52567 36.3437 5.62567V10.8194Z" fill="black"/>
</svg>
