<svg width="51" height="51" viewBox="0 0 51 51" fill="none" xmlns="http://www.w3.org/2000/svg">
<path d="M25.0387 16.3719C23.2617 16.3699 21.5241 16.8948 20.0455 17.8804C18.5669 18.8659 17.4138 20.2677 16.7319 21.9086C16.05 23.5495 15.87 25.3558 16.2147 27.099C16.5594 28.8422 17.4132 30.444 18.6683 31.7019C19.9233 32.9599 21.5232 33.8174 23.2656 34.166C25.008 34.5147 26.8147 34.3388 28.4571 33.6607C30.0996 32.9825 31.5041 31.8326 32.493 30.3563C33.4819 28.8799 34.0108 27.1435 34.0128 25.3665C34.0155 22.9837 33.0716 20.6974 31.3886 19.0106C29.7056 17.3238 27.4215 16.3746 25.0387 16.3719ZM25.0208 31.9969C23.7075 31.9954 22.424 31.6045 21.3328 30.8735C20.2416 30.1426 19.3916 29.1045 18.8904 27.8905C18.3892 26.6765 18.2592 25.3412 18.5169 24.0533C18.7746 22.7655 19.4084 21.5829 20.3382 20.6553C21.2679 19.7276 22.4519 19.0965 23.7403 18.8418C25.0288 18.587 26.3638 18.7201 27.5767 19.224C28.7895 19.728 29.8257 20.5804 30.5541 21.6733C31.2825 22.7661 31.6705 24.0505 31.669 25.3639C31.6619 27.1235 30.9587 28.8087 29.713 30.0516C28.4673 31.2944 26.7805 31.9938 25.0208 31.9969ZM33.644 6.22548L16.4565 6.20586C13.6593 6.20266 10.9754 7.31079 8.99525 9.28645C7.01507 11.2621 5.90082 13.9435 5.89763 16.7407L5.87801 33.9282C5.87481 36.7254 6.98293 39.4093 8.9586 41.3895C10.9343 43.3696 13.6156 44.4839 16.4128 44.4871L33.6003 44.5067C36.3975 44.5099 39.0814 43.4018 41.0616 41.4261C43.0418 39.4504 44.156 36.7691 44.1592 33.9719L44.1789 16.7844C44.182 13.9872 43.0739 11.3033 41.0983 9.3231C39.1226 7.34292 36.4412 6.22867 33.644 6.22548ZM41.8155 33.9692C41.813 36.1448 40.9464 38.2303 39.4062 39.7669C37.8661 41.3036 35.7786 42.1654 33.603 42.163L16.4155 42.1433C14.2399 42.1409 12.1544 41.2742 10.6178 39.7341C9.08114 38.1939 8.21927 36.1065 8.22175 33.9308L8.24138 16.7434C8.24386 14.5678 9.1105 12.4822 10.6506 10.9456C12.1908 9.40899 14.2783 8.54712 16.4539 8.54961L33.6413 8.56923C35.817 8.57171 37.9025 9.43835 39.4391 10.9785C40.9757 12.5186 41.8376 14.6061 41.8351 16.7817L41.8155 33.9692ZM37.1494 15.2139C37.1489 15.6002 37.034 15.9776 36.819 16.2986C36.604 16.6195 36.2987 16.8695 35.9416 17.0169C35.5846 17.1644 35.1918 17.2026 34.813 17.1268C34.4343 17.051 34.0865 16.8646 33.8136 16.5911C33.5408 16.3177 33.3552 15.9694 33.2802 15.5905C33.2053 15.2115 33.2444 14.8189 33.3927 14.4621C33.5409 14.1054 33.7916 13.8007 34.113 13.5864C34.4345 13.3722 34.8122 13.2581 35.1985 13.2585C35.7165 13.2591 36.213 13.4654 36.5789 13.8321C36.9448 14.1988 37.15 14.6959 37.1494 15.2139Z" fill="black"/>
</svg>
