<svg width="51" height="51" viewBox="0 0 51 51" fill="none" xmlns="http://www.w3.org/2000/svg">
<path d="M42.5726 9.1611C43.7601 9.1611 44.6559 10.2028 44.1767 12.1403L38.3642 39.5361C37.958 41.484 36.7809 41.9528 35.1559 41.0465L21.2913 30.8069C21.2376 30.7684 21.1938 30.7175 21.1635 30.6587C21.1333 30.5998 21.1176 30.5346 21.1176 30.4684C21.1176 30.4022 21.1333 30.337 21.1635 30.2781C21.1938 30.2193 21.2376 30.1684 21.2913 30.1299L37.3017 15.6715C38.0309 15.0257 37.1455 14.7132 36.1872 15.2965L16.0934 27.9736C16.0325 28.0133 15.9633 28.0387 15.8911 28.0477C15.8189 28.0567 15.7456 28.0492 15.6767 28.0257L7.1455 25.3278C5.24967 24.7757 5.24967 23.4736 7.57258 22.5465L41.708 9.37985C41.9787 9.24998 42.2727 9.1756 42.5726 9.1611V9.1611Z" stroke="black" stroke-width="1.04167" stroke-linecap="round" stroke-linejoin="round"/>
</svg>
