<svg width="51" height="51" viewBox="0 0 51 51" fill="none" xmlns="http://www.w3.org/2000/svg">
<g clip-path="url(#clip0_34_653)">
<path d="M0.203613 12.4371C0.203613 10.5817 1.47314 9.84924 3.03564 9.75159L10.311 9.80042C10.7505 9.80042 11.1411 10.0934 11.2876 10.5328C12.9478 15.9039 14.9985 19.2242 17.4399 22.984C17.5864 23.277 17.8306 23.4235 18.0747 23.4235C18.27 23.4235 18.4653 23.3258 18.6118 23.0817L18.7583 22.5446L18.8071 14.0973C18.8071 12.8766 18.2212 12.6813 16.854 12.486C16.3169 12.3883 15.9751 11.9 15.9751 11.4117C15.9751 11.3141 15.9751 11.2164 16.0239 11.1188C16.7075 9.01917 18.856 7.94495 21.8833 7.94495L24.6177 7.89612C26.8638 7.89612 28.9146 8.87268 28.9146 11.7535V22.8375C29.1099 22.984 29.3052 23.0817 29.5493 23.0817C29.9399 23.0817 30.4282 22.8375 30.8188 22.2028C33.3579 18.6383 36.2388 14.3903 36.6294 12.1442C36.6294 12.0465 36.6782 11.9977 36.7271 11.9C37.2642 10.8258 38.6313 10.0934 39.2173 9.89807C39.3149 9.84924 39.4614 9.80042 39.6567 9.80042H47.2251L47.7134 9.84924C48.4458 9.84924 48.9829 10.3375 49.2271 10.777C49.6665 11.4606 49.5688 12.193 49.6177 12.486V12.8278C48.8853 17.2711 43.8071 22.2516 41.6587 25.4742C41.3657 25.8649 41.2192 26.2067 41.2192 26.5485C41.2192 26.8414 41.3657 27.1344 41.6099 27.4274L48.7388 36.4117C49.1294 36.9489 49.3247 37.5836 49.3247 38.1207C49.3247 39.7321 47.811 40.6598 46.3462 40.8063L45.5161 40.8551H38.0942C37.9478 40.8551 37.8501 40.9039 37.7036 40.9039C36.8735 40.9039 36.1899 40.4645 35.7017 39.9762C34.1392 38.0719 32.6255 36.1188 31.1118 34.2145C30.8188 33.8239 30.7212 33.775 30.4282 33.5797C30.0864 34.9957 29.7935 36.4606 29.4517 37.9254L29.3052 38.7555C29.061 39.6344 28.4263 40.5621 27.2544 40.8063L26.5708 40.8551H21.7856C13.3384 40.8551 5.77002 28.8434 0.447754 13.8531C0.30127 13.4625 0.203613 12.9254 0.203613 12.4371ZM29.5493 25.0836C28.2798 25.0836 26.8638 24.3512 26.8638 22.984V11.7535C26.8638 10.4352 26.2778 9.9469 24.6665 9.9469L21.8833 10.0446C20.3208 10.0446 19.4419 10.2887 18.7095 10.777C19.8325 11.3141 20.8579 12.0465 20.8579 14.0973V22.691C20.7114 24.4 19.2954 25.5231 17.9282 25.5231C17.0005 25.5231 16.1704 24.986 15.6821 24.1071C13.4849 20.7867 11.6294 17.6617 10.0181 13.1696L9.57861 11.9L3.08447 11.8512C2.20557 11.8512 2.30322 11.9 2.30322 12.3395C2.30322 12.6324 2.35205 13.0231 2.40088 13.2672L3.42627 16.0016C8.74854 29.7711 15.438 38.8043 21.7856 38.8043H26.6685C27.3521 38.8043 27.3032 37.9742 27.4497 37.486L28.3774 33.1891C28.5728 32.7496 28.7192 32.359 29.061 32.0172C29.4517 31.6266 29.8911 31.4801 30.3306 31.4801C31.2583 31.4801 32.1372 32.2125 32.7231 32.8961L36.8735 38.1696C37.2153 38.7067 37.5083 38.8043 37.7036 38.8043H45.7603C46.5415 38.8043 47.2251 38.5602 47.2251 38.0719C47.2251 37.9254 47.1763 37.7301 47.0786 37.5836L39.9985 28.7457C39.4126 28.0133 39.1685 27.2809 39.1685 26.5485C39.1685 25.7672 39.4614 24.986 39.9497 24.3024C42.0005 21.2262 46.395 16.8317 47.4204 13.2184L47.5669 12.5836C47.5181 12.3395 47.5181 12.1442 47.4692 11.9H39.8032C39.3149 12.0953 38.9243 12.3883 38.6313 12.7789L38.3384 13.7067C37.2153 16.8317 34.1392 21.1285 31.9419 24.1071C31.2095 24.7906 30.3794 25.0836 29.5493 25.0836Z" fill="black"/>
</g>
<defs>
<clipPath id="clip0_34_653">
<rect width="50" height="50" fill="white" transform="translate(0.0571289 0.327759)"/>
</clipPath>
</defs>
</svg>
