<svg width="51" height="51" viewBox="0 0 51 51" fill="none" xmlns="http://www.w3.org/2000/svg">
<path d="M31.7212 24.6832L22.3462 18.4332C22.2287 18.355 22.0922 18.31 21.9512 18.3031C21.8102 18.2963 21.67 18.3277 21.5454 18.3942C21.4206 18.4591 21.3162 18.5574 21.2438 18.678C21.1714 18.7987 21.1338 18.9371 21.1353 19.0778V31.5778C21.1338 31.7185 21.1714 31.8568 21.2438 31.9775C21.3162 32.0982 21.4206 32.1964 21.5454 32.2614C21.6604 32.3208 21.7871 32.3542 21.9165 32.359C22.0709 32.3618 22.2219 32.3138 22.3462 32.2223L31.7212 25.9723C31.8301 25.9037 31.9199 25.8086 31.9821 25.6959C32.0443 25.5832 32.077 25.4565 32.077 25.3278C32.077 25.199 32.0443 25.0724 31.9821 24.9597C31.9199 24.8469 31.8301 24.7518 31.7212 24.6832ZM22.6978 30.1129V20.5426L29.8853 25.3278L22.6978 30.1129ZM45.061 14.1559C44.8997 13.5604 44.6022 13.0105 44.1921 12.5495C43.782 12.0886 43.2704 11.7292 42.6978 11.4996C36.0962 8.96058 25.4907 8.99964 25.0415 8.99964C24.5923 8.99964 13.9868 8.96058 7.38525 11.4996C6.81257 11.7292 6.30101 12.0886 5.89091 12.5495C5.4808 13.0105 5.18334 13.5604 5.02197 14.1559C4.53369 16.0504 3.94775 19.527 3.94775 25.3278C3.94775 31.1285 4.53369 34.6051 5.02197 36.4996C5.18334 37.0951 5.4808 37.645 5.89091 38.106C6.30101 38.5669 6.81257 38.9263 7.38525 39.1559C13.9868 41.695 24.5923 41.6559 25.0415 41.6559H25.1782C26.5259 41.6559 36.4282 41.5778 42.6978 39.1559C43.2704 38.9263 43.782 38.5669 44.1921 38.106C44.6022 37.645 44.8997 37.0951 45.061 36.4996C45.5493 34.6051 46.1353 31.1285 46.1353 25.3278C46.1353 19.527 45.5493 16.0504 45.061 14.1559ZM43.5376 36.109C43.4437 36.4645 43.2675 36.793 43.0232 37.0678C42.7789 37.3427 42.4734 37.5561 42.1313 37.691C35.8032 40.1325 25.1587 40.0934 25.0415 40.0934C24.9243 40.0934 14.2798 40.1325 7.95166 37.691C7.60959 37.5561 7.30406 37.3427 7.05977 37.0678C6.81548 36.793 6.63928 36.4645 6.54541 36.109C6.07666 34.2926 5.51025 30.9528 5.51025 25.3278C5.51025 19.7028 6.07666 16.3629 6.54541 14.5465C6.63928 14.191 6.81548 13.8625 7.05977 13.5877C7.30406 13.3129 7.60959 13.0994 7.95166 12.9645C14.2798 10.5231 24.9243 10.5621 25.0415 10.5621C25.1587 10.5621 35.8032 10.5231 42.1313 12.9645C42.4734 13.0994 42.7789 13.3129 43.0232 13.5877C43.2675 13.8625 43.4437 14.191 43.5376 14.5465C44.0063 16.3629 44.5728 19.7028 44.5728 25.3278C44.5728 30.9528 44.0063 34.2926 43.5376 36.109Z" fill="black"/>
</svg>
