<svg width="160" height="33" viewBox="0 0 160 33" fill="none" xmlns="http://www.w3.org/2000/svg">
<path d="M31.9565 12.9767C31.8474 12.6262 31.5522 12.3761 31.2028 12.3371L20.963 11.2475L16.8109 1.37572C16.669 1.04105 16.3507 0.821655 15.9996 0.821655C15.6485 0.821655 15.3302 1.03919 15.1883 1.37758L11.0353 11.2485L0.797301 12.3371C0.447965 12.3743 0.151828 12.6271 0.0436576 12.9767C-0.065399 13.3271 0.0339046 13.712 0.29635 13.9574L7.96755 21.151L5.79263 31.6959C5.71904 32.0556 5.8538 32.4275 6.13842 32.6441C6.29358 32.7622 6.47623 32.8217 6.65976 32.8217C6.81315 32.8217 6.96742 32.7798 7.10574 32.6943L16.0005 27.2652L24.8935 32.6943C25.1967 32.8774 25.5762 32.8598 25.8608 32.6394C26.1445 32.4266 26.2811 32.051 26.2075 31.6912L24.0326 21.1454L31.7047 13.9528C31.9653 13.7111 32.0655 13.3262 31.9565 12.9767ZM22.4641 20.1247C22.2265 20.3478 22.121 20.6871 22.1884 21.0143L24.0476 30.0272L16.4456 25.3883C16.1699 25.2191 15.8294 25.2191 15.5536 25.3883L7.94982 30.0272L9.8091 21.0143C9.87649 20.6871 9.77098 20.3478 9.53336 20.1247L2.97577 13.977L11.7269 13.0455C12.0443 13.0129 12.3192 12.8 12.4486 12.4951L15.9987 4.0568L19.5479 12.4951C19.6774 12.8 19.9523 13.0129 20.2697 13.0455L29.0208 13.977L22.4641 20.1247Z" fill="black"/>
<path d="M22.4641 20.1247C22.2265 20.3478 22.121 20.6871 22.1884 21.0143L24.0476 30.0272L16.4456 25.3883C16.1699 25.2191 15.8294 25.2191 15.5536 25.3883L7.94982 30.0272L9.8091 21.0143C9.87649 20.6871 9.77098 20.3478 9.53336 20.1247L2.97577 13.977L11.7269 13.0455C12.0443 13.0129 12.3192 12.8 12.4486 12.4951L15.9987 4.0568L19.5479 12.4951C19.6774 12.8 19.9523 13.0129 20.2697 13.0455L29.0208 13.977L22.4641 20.1247Z" fill="#FFDD2C"/>
<path d="M63.9565 12.9767C63.8474 12.6262 63.5522 12.3761 63.2028 12.3371L52.963 11.2475L48.8109 1.37572C48.669 1.04105 48.3507 0.821655 47.9996 0.821655C47.6485 0.821655 47.3302 1.03919 47.1883 1.37758L43.0353 11.2485L32.7973 12.3371C32.448 12.3743 32.1518 12.6271 32.0437 12.9767C31.9346 13.3271 32.0339 13.712 32.2963 13.9574L39.9676 21.151L37.7926 31.6959C37.719 32.0556 37.8538 32.4275 38.1384 32.6441C38.2936 32.7622 38.4762 32.8217 38.6598 32.8217C38.8131 32.8217 38.9674 32.7798 39.1057 32.6943L48.0005 27.2652L56.8935 32.6943C57.1967 32.8774 57.5762 32.8598 57.8608 32.6394C58.1445 32.4266 58.2811 32.051 58.2075 31.6912L56.0326 21.1454L63.7047 13.9528C63.9653 13.7111 64.0655 13.3262 63.9565 12.9767ZM54.4641 20.1247C54.2265 20.3478 54.121 20.6871 54.1884 21.0143L56.0476 30.0272L48.4456 25.3883C48.1699 25.2191 47.8294 25.2191 47.5536 25.3883L39.9498 30.0272L41.8091 21.0143C41.8765 20.6871 41.771 20.3478 41.5334 20.1247L34.9758 13.977L43.7269 13.0455C44.0443 13.0129 44.3192 12.8 44.4486 12.4951L47.9987 4.0568L51.5479 12.4951C51.6774 12.8 51.9523 13.0129 52.2697 13.0455L61.0208 13.977L54.4641 20.1247Z" fill="black"/>
<path d="M54.4641 20.1247C54.2265 20.3478 54.121 20.6871 54.1884 21.0143L56.0476 30.0272L48.4456 25.3883C48.1699 25.2191 47.8294 25.2191 47.5536 25.3883L39.9498 30.0272L41.8091 21.0143C41.8765 20.6871 41.771 20.3478 41.5334 20.1247L34.9758 13.977L43.7269 13.0455C44.0443 13.0129 44.3192 12.8 44.4486 12.4951L47.9987 4.0568L51.5479 12.4951C51.6774 12.8 51.9523 13.0129 52.2697 13.0455L61.0208 13.977L54.4641 20.1247Z" fill="#FFDD2C"/>
<path d="M95.9565 12.9767C95.8474 12.6262 95.5522 12.3761 95.2028 12.3371L84.963 11.2475L80.8109 1.37572C80.669 1.04105 80.3507 0.821655 79.9996 0.821655C79.6485 0.821655 79.3302 1.03919 79.1883 1.37758L75.0353 11.2485L64.7973 12.3371C64.448 12.3743 64.1518 12.6271 64.0437 12.9767C63.9346 13.3271 64.0339 13.712 64.2963 13.9574L71.9676 21.151L69.7926 31.6959C69.719 32.0556 69.8538 32.4275 70.1384 32.6441C70.2936 32.7622 70.4762 32.8217 70.6598 32.8217C70.8131 32.8217 70.9674 32.7798 71.1057 32.6943L80.0005 27.2652L88.8935 32.6943C89.1967 32.8774 89.5762 32.8598 89.8608 32.6394C90.1445 32.4266 90.2811 32.051 90.2075 31.6912L88.0326 21.1454L95.7047 13.9528C95.9653 13.7111 96.0655 13.3262 95.9565 12.9767ZM86.4641 20.1247C86.2265 20.3478 86.121 20.6871 86.1884 21.0143L88.0476 30.0272L80.4456 25.3883C80.1699 25.2191 79.8294 25.2191 79.5536 25.3883L71.9498 30.0272L73.8091 21.0143C73.8765 20.6871 73.771 20.3478 73.5334 20.1247L66.9758 13.977L75.7269 13.0455C76.0443 13.0129 76.3192 12.8 76.4486 12.4951L79.9987 4.0568L83.5479 12.4951C83.6774 12.8 83.9523 13.0129 84.2697 13.0455L93.0208 13.977L86.4641 20.1247Z" fill="black"/>
<path d="M86.4641 20.1247C86.2265 20.3478 86.121 20.6871 86.1884 21.0143L88.0476 30.0272L80.4456 25.3883C80.1699 25.2191 79.8294 25.2191 79.5536 25.3883L71.9498 30.0272L73.8091 21.0143C73.8765 20.6871 73.771 20.3478 73.5334 20.1247L66.9758 13.977L75.7269 13.0455C76.0443 13.0129 76.3192 12.8 76.4486 12.4951L79.9987 4.0568L83.5479 12.4951C83.6774 12.8 83.9523 13.0129 84.2697 13.0455L93.0208 13.977L86.4641 20.1247Z" fill="#FFDD2C"/>
<path d="M127.956 12.9767C127.847 12.6262 127.552 12.3761 127.203 12.3371L116.963 11.2475L112.811 1.37572C112.669 1.04105 112.351 0.821655 112 0.821655C111.649 0.821655 111.33 1.03919 111.188 1.37758L107.035 11.2485L96.7973 12.3371C96.448 12.3743 96.1518 12.6271 96.0437 12.9767C95.9346 13.3271 96.0339 13.712 96.2963 13.9574L103.968 21.151L101.793 31.6959C101.719 32.0556 101.854 32.4275 102.138 32.6441C102.294 32.7622 102.476 32.8217 102.66 32.8217C102.813 32.8217 102.967 32.7798 103.106 32.6943L112.001 27.2652L120.893 32.6943C121.197 32.8774 121.576 32.8598 121.861 32.6394C122.145 32.4266 122.281 32.051 122.207 31.6912L120.033 21.1454L127.705 13.9528C127.965 13.7111 128.066 13.3262 127.956 12.9767ZM118.464 20.1247C118.226 20.3478 118.121 20.6871 118.188 21.0143L120.048 30.0272L112.446 25.3883C112.17 25.2191 111.829 25.2191 111.554 25.3883L103.95 30.0272L105.809 21.0143C105.876 20.6871 105.771 20.3478 105.533 20.1247L98.9758 13.977L107.727 13.0455C108.044 13.0129 108.319 12.8 108.449 12.4951L111.999 4.0568L115.548 12.4951C115.677 12.8 115.952 13.0129 116.27 13.0455L125.021 13.977L118.464 20.1247Z" fill="black"/>
<path d="M118.464 20.1247C118.226 20.3478 118.121 20.6871 118.188 21.0143L120.048 30.0272L112.446 25.3883C112.17 25.2191 111.829 25.2191 111.554 25.3883L103.95 30.0272L105.809 21.0143C105.876 20.6871 105.771 20.3478 105.533 20.1247L98.9758 13.977L107.727 13.0455C108.044 13.0129 108.319 12.8 108.449 12.4951L111.999 4.0568L115.548 12.4951C115.677 12.8 115.952 13.0129 116.27 13.0455L125.021 13.977L118.464 20.1247Z" fill="#FFDD2C"/>
<path d="M159.956 12.9767C159.847 12.6262 159.552 12.3761 159.203 12.3371L148.963 11.2475L144.811 1.37572C144.669 1.04105 144.351 0.821655 144 0.821655C143.649 0.821655 143.33 1.03919 143.188 1.37758L139.035 11.2485L128.797 12.3371C128.448 12.3743 128.152 12.6271 128.044 12.9767C127.935 13.3271 128.034 13.712 128.296 13.9574L135.968 21.151L133.793 31.6959C133.719 32.0556 133.854 32.4275 134.138 32.6441C134.294 32.7622 134.476 32.8217 134.66 32.8217C134.813 32.8217 134.967 32.7798 135.106 32.6943L144.001 27.2652L152.893 32.6943C153.197 32.8774 153.576 32.8598 153.861 32.6394C154.145 32.4266 154.281 32.051 154.207 31.6912L152.033 21.1454L159.705 13.9528C159.965 13.7111 160.066 13.3262 159.956 12.9767ZM150.464 20.1247C150.226 20.3478 150.121 20.6871 150.188 21.0143L152.048 30.0272L144.446 25.3883C144.17 25.2191 143.829 25.2191 143.554 25.3883L135.95 30.0272L137.809 21.0143C137.876 20.6871 137.771 20.3478 137.533 20.1247L130.976 13.977L139.727 13.0455C140.044 13.0129 140.319 12.8 140.449 12.4951L143.999 4.0568L147.548 12.4951C147.677 12.8 147.952 13.0129 148.27 13.0455L157.021 13.977L150.464 20.1247Z" fill="black"/>
<path d="M150.464 20.1247C150.226 20.3478 150.121 20.6871 150.188 21.0143L152.048 30.0272L144.446 25.3883C144.17 25.2191 143.829 25.2191 143.554 25.3883L135.95 30.0272L137.809 21.0143C137.876 20.6871 137.771 20.3478 137.533 20.1247L130.976 13.977L139.727 13.0455C140.044 13.0129 140.319 12.8 140.449 12.4951L143.999 4.0568L147.548 12.4951C147.677 12.8 147.952 13.0129 148.27 13.0455L157.021 13.977L150.464 20.1247Z" fill="#FFDD2C"/>
</svg>
