<svg width="81" height="81" viewBox="0 0 81 81" fill="none" xmlns="http://www.w3.org/2000/svg">
<g clip-path="url(#clip0_34_993)">
<path d="M40.0268 80.0914C62.1243 80.0914 80.0377 62.1829 80.0377 40.0915C80.0376 18.0001 62.1241 0.0914249 40.0266 0.0913727C17.9292 0.0913204 0.0157742 17.9999 0.0158266 40.0913C0.0158789 62.1827 17.9294 80.0913 40.0268 80.0914Z" fill="url(#paint0_linear_34_993)"/>
<path d="M39.9261 73.6747C21.5412 73.6746 6.58362 58.7211 6.58358 40.3413C6.58353 21.9614 21.5411 7.00797 39.9259 7.00801C58.3116 7.00806 73.2684 21.9615 73.2684 40.3414C73.2685 58.7213 58.3118 73.6747 39.9261 73.6747Z" fill="url(#paint1_linear_34_993)"/>
<path opacity="0.3" d="M45.0235 42.9381L45.0235 43.8961L47.5204 43.8962L47.5204 57.3567C47.5204 58.8667 48.7447 60.0907 50.255 60.0907L50.2551 60.0907C51.7653 60.0907 52.9896 58.8668 52.9896 57.3567L52.9895 22.5922C47.868 28.1306 45.0235 35.3956 45.0235 42.9381Z" fill="black"/>
<path opacity="0.3" d="M37.1774 35.0134L35.6146 35.0134L35.6146 22.5915L33.7444 22.5915L33.7444 35.0134L32.1815 35.0134L32.1815 22.5915L29.5645 22.5915L29.5645 33.6024C29.5645 35.6077 30.5346 37.4891 32.1685 38.6525L32.1685 57.5808C32.1685 58.9671 33.2928 60.0911 34.6795 60.0911C36.0664 60.0911 37.1906 58.9671 37.1906 57.5808L37.1905 38.6525C38.8242 37.4891 39.7944 35.6077 39.7944 33.6024L39.7944 22.5915L37.1774 22.5915L37.1774 35.0134Z" fill="black"/>
<path d="M43.7732 41.688L43.7732 42.6461L46.27 42.6461L46.2701 56.1066C46.2701 57.6167 47.4944 58.8406 49.0046 58.8406L49.0047 58.8406C50.515 58.8407 51.7393 57.6167 51.7393 56.1067L51.7392 21.3422C46.6177 26.8806 43.7732 34.1456 43.7732 41.688Z" fill="white"/>
<path d="M35.9271 33.7634L34.3643 33.7634L34.3642 21.3415L32.4941 21.3415L32.4941 33.7634L30.9312 33.7633L30.9311 21.3415L28.3142 21.3415L28.3142 32.3523C28.3142 34.3577 29.2843 36.2391 30.9182 37.4025L30.9182 56.3308C30.9182 57.7171 32.0424 58.8411 33.4292 58.8411C34.816 58.8411 35.9402 57.7171 35.9402 56.3308L35.9402 37.4025C37.5739 36.2391 38.5441 34.3577 38.5441 32.3524L38.544 21.3415L35.9271 21.3415L35.9271 33.7634Z" fill="white"/>
</g>
<defs>
<linearGradient id="paint0_linear_34_993" x1="0.0158262" y1="40.0913" x2="80.0377" y2="40.0911" gradientUnits="userSpaceOnUse">
<stop stop-color="#F67950"/>
<stop offset="1" stop-color="#F15A29"/>
</linearGradient>
<linearGradient id="paint1_linear_34_993" x1="6.58358" y1="40.3413" x2="73.2684" y2="40.3411" gradientUnits="userSpaceOnUse">
<stop stop-color="#F15A29"/>
<stop offset="1" stop-color="#F67950"/>
</linearGradient>
<clipPath id="clip0_34_993">
<rect width="80.0218" height="80" fill="white" transform="matrix(1 2.36416e-06 2.36905e-06 1 0.0157318 0.0912781)"/>
</clipPath>
</defs>
</svg>
