<svg width="50" height="51" viewBox="0 0 50 51" xmlns="http://www.w3.org/2000/svg">
<g clip-path="url(#clip0_38_1043)">
<path d="M33.0185 25.0185H25.9815V17.9815C25.9815 17.7212 25.8781 17.4715 25.694 17.2875C25.5099 17.1034 25.2603 17 25 17C24.7397 17 24.4901 17.1034 24.306 17.2875C24.1219 17.4715 24.0185 17.7212 24.0185 17.9815V25.0185H16.9815C16.7212 25.0185 16.4715 25.1219 16.2875 25.306C16.1034 25.4901 16 25.7397 16 26C16 26.2603 16.1034 26.5099 16.2875 26.694C16.4715 26.8781 16.7212 26.9815 16.9815 26.9815H24.0185V34.0185C24.0185 34.2788 24.1219 34.5285 24.306 34.7125C24.4901 34.8966 24.7397 35 25 35C25.2603 35 25.5099 34.8966 25.694 34.7125C25.8781 34.5285 25.9815 34.2788 25.9815 34.0185V26.9815H33.0185C33.2788 26.9815 33.5285 26.8781 33.7125 26.694C33.8966 26.5099 34 26.2603 34 26C34 25.7397 33.8966 25.4901 33.7125 25.306C33.5285 25.1219 33.2788 25.0185 33.0185 25.0185Z"/>
<path d="M25 8.82153C21.6377 8.82153 18.3509 9.81857 15.5553 11.6865C12.7597 13.5545 10.5807 16.2096 9.29406 19.3159C8.00737 22.4223 7.67071 25.8404 8.32666 29.1381C8.98261 32.4357 10.6017 35.4649 12.9792 37.8423C15.3567 40.2198 18.3858 41.8389 21.6835 42.4949C24.9811 43.1508 28.3993 42.8142 31.5056 41.5275C34.612 40.2408 37.267 38.0619 39.135 35.2662C41.003 32.4706 42 29.1838 42 25.8215C42 21.3128 40.2089 16.9888 37.0208 13.8007C33.8327 10.6126 29.5087 8.82153 25 8.82153ZM25 40.6965C22.058 40.6965 19.1821 39.8241 16.7359 38.1896C14.2897 36.5552 12.3832 34.232 11.2573 31.5139C10.1314 28.7959 9.83687 25.805 10.4108 22.9196C10.9848 20.0341 12.4015 17.3836 14.4818 15.3033C16.5621 13.223 19.2126 11.8063 22.098 11.2324C24.9835 10.6584 27.9744 10.953 30.6924 12.0788C33.4105 13.2047 35.7336 15.1112 37.3681 17.5574C39.0026 20.0036 39.875 22.8795 39.875 25.8215C39.875 29.7666 38.3078 33.5501 35.5182 36.3397C32.7286 39.1293 28.9451 40.6965 25 40.6965Z"/>
</g>
<defs>
<clipPath id="clip0_38_1043">
<rect width="50" height="50" transform="translate(0 0.821533)"/>
</clipPath>
</defs>
</svg>
