<svg width="36" height="36" viewBox="0 0 36 36" fill="none" xmlns="http://www.w3.org/2000/svg">
<path d="M13.7915 0.0156987C16.4056 0.0182372 18.9648 0.765465 21.1693 2.16984C23.3738 3.57422 25.1323 5.57758 26.2389 7.94522C27.3454 10.3129 27.7541 12.9467 27.4172 15.5383C27.0802 18.1298 26.0114 20.5716 24.3362 22.5778L34.6447 32.9045C34.866 33.1253 34.9965 33.4208 35.0106 33.733C35.0247 34.0452 34.9213 34.3513 34.7208 34.5911C34.5204 34.8308 34.2373 34.9868 33.9275 35.0283C33.6177 35.0698 33.3036 34.9938 33.0471 34.8152L32.8722 34.6725L22.5662 24.3432C20.8671 25.754 18.8531 26.735 16.6947 27.2031C14.5362 27.6712 12.2967 27.6128 10.1656 27.0328C8.03448 26.4527 6.07446 25.3681 4.45128 23.8707C2.82811 22.3732 1.58954 20.507 0.840335 18.4298C0.0911294 16.3527 -0.146674 14.1257 0.147036 11.9372C0.440747 9.74874 1.25733 7.66318 2.52773 5.85692C3.79812 4.05066 5.48495 2.57683 7.44555 1.5601C9.40615 0.543365 11.5828 0.0136295 13.7915 0.0156987ZM13.7887 2.5157C10.8042 2.51229 7.94055 3.69429 5.82778 5.80166C3.71502 7.90903 2.52616 10.7692 2.52276 13.7528C2.51935 16.7365 3.70167 19.5994 5.80962 21.7116C7.91757 23.8237 10.7785 25.0123 13.763 25.0157C16.7475 25.0191 19.6111 23.8371 21.7239 21.7297C23.8366 19.6223 25.0255 16.7622 25.0289 13.7785C25.0323 10.7949 23.85 7.93202 21.742 5.81983C19.6341 3.70764 16.7732 2.5191 13.7887 2.5157Z" fill="black"/>
</svg>
