<svg width="50" height="50" viewBox="0 0 50 50" fill="none" xmlns="http://www.w3.org/2000/svg">
<path d="M25 37.5C21.6848 37.5 18.5054 36.183 16.1612 33.8388C13.817 31.4946 12.5 28.3152 12.5 25C12.5 21.6848 13.817 18.5054 16.1612 16.1612C18.5054 13.817 21.6848 12.5 25 12.5C28.3152 12.5 31.4946 13.817 33.8388 16.1612C36.183 18.5054 37.5 21.6848 37.5 25C37.5 28.3152 36.183 31.4946 33.8388 33.8388C31.4946 36.183 28.3152 37.5 25 37.5ZM25 0C25.663 0 26.2989 0.263392 26.7678 0.732233C27.2366 1.20107 27.5 1.83696 27.5 2.5V7.5C27.5 8.16304 27.2366 8.79893 26.7678 9.26777C26.2989 9.73661 25.663 10 25 10C24.337 10 23.7011 9.73661 23.2322 9.26777C22.7634 8.79893 22.5 8.16304 22.5 7.5V2.5C22.5 1.83696 22.7634 1.20107 23.2322 0.732233C23.7011 0.263392 24.337 0 25 0V0ZM25 40C25.663 40 26.2989 40.2634 26.7678 40.7322C27.2366 41.2011 27.5 41.837 27.5 42.5V47.5C27.5 48.163 27.2366 48.7989 26.7678 49.2678C26.2989 49.7366 25.663 50 25 50C24.337 50 23.7011 49.7366 23.2322 49.2678C22.7634 48.7989 22.5 48.163 22.5 47.5V42.5C22.5 41.837 22.7634 41.2011 23.2322 40.7322C23.7011 40.2634 24.337 40 25 40V40ZM2.5 22.5H7.5C8.16304 22.5 8.79893 22.7634 9.26777 23.2322C9.73661 23.7011 10 24.337 10 25C10 25.663 9.73661 26.2989 9.26777 26.7678C8.79893 27.2366 8.16304 27.5 7.5 27.5H2.5C1.83696 27.5 1.20107 27.2366 0.732233 26.7678C0.263392 26.2989 0 25.663 0 25C0 24.337 0.263392 23.7011 0.732233 23.2322C1.20107 22.7634 1.83696 22.5 2.5 22.5V22.5ZM42.5 22.5H47.5C48.163 22.5 48.7989 22.7634 49.2678 23.2322C49.7366 23.7011 50 24.337 50 25C50 25.663 49.7366 26.2989 49.2678 26.7678C48.7989 27.2366 48.163 27.5 47.5 27.5H42.5C41.837 27.5 41.2011 27.2366 40.7322 26.7678C40.2634 26.2989 40 25.663 40 25C40 24.337 40.2634 23.7011 40.7322 23.2322C41.2011 22.7634 41.837 22.5 42.5 22.5ZM42.6775 7.3225C43.1462 7.79132 43.4095 8.42709 43.4095 9.09C43.4095 9.75291 43.1462 10.3887 42.6775 10.8575L39.1425 14.3925C38.9119 14.6313 38.636 14.8217 38.331 14.9528C38.026 15.0838 37.698 15.1527 37.366 15.1556C37.0341 15.1585 36.7049 15.0953 36.3976 14.9696C36.0904 14.8439 35.8112 14.6582 35.5765 14.4235C35.3418 14.1888 35.1561 13.9096 35.0304 13.6024C34.9047 13.2951 34.8415 12.9659 34.8444 12.634C34.8473 12.302 34.9162 11.974 35.0472 11.669C35.1783 11.364 35.3687 11.0881 35.6075 10.8575L39.1425 7.3225C39.6113 6.85382 40.2471 6.59053 40.91 6.59053C41.5729 6.59053 42.2087 6.85382 42.6775 7.3225ZM14.3925 35.6075C14.8612 36.0763 15.1245 36.7121 15.1245 37.375C15.1245 38.0379 14.8612 38.6737 14.3925 39.1425L10.8575 42.6775C10.6269 42.9163 10.351 43.1067 10.046 43.2378C9.741 43.3688 9.41295 43.4377 9.081 43.4406C8.74905 43.4435 8.41986 43.3803 8.11261 43.2546C7.80537 43.1288 7.52624 42.9432 7.29151 42.7085C7.05678 42.4738 6.87115 42.1946 6.74545 41.8874C6.61974 41.5801 6.55649 41.2509 6.55937 40.919C6.56226 40.587 6.63122 40.259 6.76225 39.954C6.89327 39.649 7.08372 39.3731 7.3225 39.1425L10.8575 35.6075C11.3263 35.1388 11.9621 34.8755 12.625 34.8755C13.2879 34.8755 13.9237 35.1388 14.3925 35.6075V35.6075ZM10.8575 7.3225L14.3925 10.8575C14.8479 11.329 15.0999 11.9605 15.0942 12.616C15.0885 13.2715 14.8256 13.8985 14.362 14.362C13.8985 14.8256 13.2715 15.0885 12.616 15.0942C11.9605 15.0999 11.329 14.8479 10.8575 14.3925L7.325 10.8575C6.8696 10.386 6.61762 9.75449 6.62331 9.099C6.62901 8.44351 6.89193 7.81647 7.35545 7.35295C7.81897 6.88943 8.446 6.62651 9.1015 6.62081C9.75699 6.61512 10.3885 6.8671 10.86 7.3225H10.8575ZM39.1425 35.6075L42.6775 39.1425C43.1329 39.614 43.3849 40.2455 43.3792 40.901C43.3735 41.5565 43.1106 42.1835 42.647 42.647C42.1835 43.1106 41.5565 43.3735 40.901 43.3792C40.2455 43.3849 39.614 43.1329 39.1425 42.6775L35.6075 39.1425C35.3687 38.9119 35.1783 38.636 35.0472 38.331C34.9162 38.026 34.8473 37.698 34.8444 37.366C34.8415 37.0341 34.9047 36.7049 35.0304 36.3976C35.1561 36.0904 35.3418 35.8112 35.5765 35.5765C35.8112 35.3418 36.0904 35.1561 36.3976 35.0304C36.7049 34.9047 37.0341 34.8415 37.366 34.8444C37.698 34.8473 38.026 34.9162 38.331 35.0472C38.636 35.1783 38.9119 35.3687 39.1425 35.6075V35.6075Z" fill="black"/>
</svg>
